<svg width="28" height="28" viewBox="0 0 28 28" fill="none" xmlns="http://www.w3.org/2000/svg">
<path d="M5.8 20.8C6.93333 19.9333 8.2 19.25 9.6 18.75C11 18.25 12.4667 18 14 18C15.5333 18 17 18.25 18.4 18.75C19.8 19.25 21.0667 19.9333 22.2 20.8C22.9778 19.8888 23.5833 18.8555 24.0167 17.7C24.45 16.5444 24.6667 15.3111 24.6667 14C24.6667 11.0444 23.6278 8.52774 21.55 6.44996C19.4722 4.37218 16.9556 3.33329 14 3.33329C11.0444 3.33329 8.52777 4.37218 6.45 6.44996C4.37222 8.52774 3.33333 11.0444 3.33333 14C3.33333 15.3111 3.55 16.5444 3.98333 17.7C4.41666 18.8555 5.02222 19.8888 5.8 20.8ZM14 15.3333C12.6889 15.3333 11.5833 14.8833 10.6833 13.9833C9.78333 13.0833 9.33333 11.9777 9.33333 10.6666C9.33333 9.35551 9.78333 8.24996 10.6833 7.34996C11.5833 6.44996 12.6889 5.99996 14 5.99996C15.3111 5.99996 16.4167 6.44996 17.3167 7.34996C18.2167 8.24996 18.6667 9.35551 18.6667 10.6666C18.6667 11.9777 18.2167 13.0833 17.3167 13.9833C16.4167 14.8833 15.3111 15.3333 14 15.3333ZM14 27.3333C12.1556 27.3333 10.4222 26.9833 8.8 26.2833C7.17777 25.5833 5.76666 24.6333 4.56666 23.4333C3.36666 22.2333 2.41666 20.8222 1.71666 19.2C1.01666 17.5777 0.666664 15.8444 0.666664 14C0.666664 12.1555 1.01666 10.4222 1.71666 8.79996C2.41666 7.17774 3.36666 5.76663 4.56666 4.56663C5.76666 3.36663 7.17777 2.41663 8.8 1.71663C10.4222 1.01663 12.1556 0.666626 14 0.666626C15.8444 0.666626 17.5778 1.01663 19.2 1.71663C20.8222 2.41663 22.2333 3.36663 23.4333 4.56663C24.6333 5.76663 25.5833 7.17774 26.2833 8.79996C26.9833 10.4222 27.3333 12.1555 27.3333 14C27.3333 15.8444 26.9833 17.5777 26.2833 19.2C25.5833 20.8222 24.6333 22.2333 23.4333 23.4333C22.2333 24.6333 20.8222 25.5833 19.2 26.2833C17.5778 26.9833 15.8444 27.3333 14 27.3333ZM14 24.6666C15.1778 24.6666 16.2889 24.4944 17.3333 24.15C18.3778 23.8055 19.3333 23.3111 20.2 22.6666C19.3333 22.0222 18.3778 21.5277 17.3333 21.1833C16.2889 20.8388 15.1778 20.6666 14 20.6666C12.8222 20.6666 11.7111 20.8388 10.6667 21.1833C9.62222 21.5277 8.66666 22.0222 7.8 22.6666C8.66666 23.3111 9.62222 23.8055 10.6667 24.15C11.7111 24.4944 12.8222 24.6666 14 24.6666ZM14 12.6666C14.5778 12.6666 15.0556 12.4777 15.4333 12.1C15.8111 11.7222 16 11.2444 16 10.6666C16 10.0888 15.8111 9.61107 15.4333 9.23329C15.0556 8.85551 14.5778 8.66663 14 8.66663C13.4222 8.66663 12.9444 8.85551 12.5667 9.23329C12.1889 9.61107 12 10.0888 12 10.6666C12 11.2444 12.1889 11.7222 12.5667 12.1C12.9444 12.4777 13.4222 12.6666 14 12.6666Z" fill="white"/>
</svg>
