<svg width="31" height="26" viewBox="0 0 31 26" fill="none" xmlns="http://www.w3.org/2000/svg">
<g clip-path="url(#clip0_4_1253)">
<path d="M30.1383 13.6636C30.1399 13.4567 30.0187 13.2641 29.8188 13.1559H29.8153L29.8027 13.1498L19.4074 7.72207C19.3625 7.69532 19.3159 7.67087 19.2678 7.64884C18.8665 7.46619 18.3897 7.46619 17.9883 7.64884C17.9402 7.67088 17.8936 7.69532 17.8487 7.72207L7.45344 13.1498L7.44089 13.1559C7.12317 13.3302 7.02577 13.6986 7.22334 13.9789C7.28155 14.0615 7.36174 14.1302 7.45693 14.1793L17.8523 19.607C17.8973 19.6335 17.9439 19.6579 17.9918 19.6802C18.3932 19.8629 18.87 19.8629 19.2713 19.6802C19.3193 19.6579 19.3658 19.6335 19.4109 19.607L29.8062 14.1793C30.0139 14.0725 30.1407 13.8756 30.1383 13.6636Z" fill="#0A2767"/>
<path d="M8.66523 10.0396H15.4871V15.5553H8.66523V10.0396ZM28.7429 4.43284V1.90976C28.7593 1.27893 28.1932 0.755654 27.478 0.740538H9.77525C9.06006 0.755654 8.49397 1.27893 8.51036 1.90976V4.43284L18.9755 6.89437L28.7429 4.43284Z" fill="#0364B8"/>
<path d="M8.51038 4.43284H15.4871V9.9713H8.51038V4.43284Z" fill="#0078D4"/>
<path d="M22.4639 4.43284H15.4872V9.9713L22.4639 15.5098H28.743V9.9713L22.4639 4.43284Z" fill="#28A8EA"/>
<path d="M15.4872 9.97129H22.4639V15.5097H15.4872V9.97129Z" fill="#0078D4"/>
<path d="M15.4872 15.5097H22.4639V21.0482H15.4872V15.5097Z" fill="#0364B8"/>
<path d="M8.66528 15.5553H15.4871V20.5694H8.66528V15.5553Z" fill="#14447D"/>
<path d="M22.4639 15.5097H28.7429V21.0482H22.4639V15.5097Z" fill="#0078D4"/>
<path d="M29.8187 14.1454L29.8054 14.1516L19.4101 19.3085C19.3647 19.3331 19.3187 19.3565 19.2706 19.3774C19.094 19.4516 18.9022 19.4935 18.7068 19.5005L18.1389 19.2076C18.0909 19.1863 18.0443 19.1627 17.9994 19.1368L7.46452 13.8334H7.45964L7.11499 13.6636V24.103C7.12036 24.7995 7.76465 25.3603 8.55428 25.3559H28.7212C28.7331 25.3559 28.7436 25.351 28.7561 25.351C28.9229 25.3416 29.0873 25.3113 29.2445 25.2611C29.3124 25.2358 29.378 25.2057 29.4405 25.1713C29.4873 25.1479 29.5675 25.0968 29.5675 25.0968C29.9249 24.8636 30.1365 24.4952 30.1382 24.103V13.6636C30.138 13.8633 30.0159 14.0474 29.8187 14.1454Z" fill="url(#paint0_linear_4_1253)"/>
<path opacity="0.5" d="M29.5801 13.6224V14.2624L18.7104 20.8636L7.45689 13.8377C7.45689 13.8344 7.45376 13.8316 7.44991 13.8316L6.41736 13.2839V12.8224L6.84294 12.8162L7.74293 13.2716L7.76386 13.2777L7.8406 13.3208C7.8406 13.3208 18.4173 18.6439 18.4452 18.6562L18.8499 18.8654C18.8848 18.8531 18.9197 18.8408 18.9615 18.8285C18.9824 18.8162 29.4615 13.6162 29.4615 13.6162L29.5801 13.6224Z" fill="#0A2767"/>
<path d="M29.8187 14.1454L29.8054 14.1522L19.4101 19.3091C19.3647 19.3337 19.3187 19.3571 19.2705 19.378C18.8668 19.552 18.3947 19.552 17.991 19.378C17.9432 19.3572 17.8966 19.3342 17.8515 19.3091L7.45615 14.1522L7.4436 14.1454C7.2429 14.0495 7.11707 13.865 7.11499 13.6636V24.103C7.11999 24.7994 7.76405 25.3603 8.55353 25.3559C8.55353 25.3559 8.55356 25.3559 8.5536 25.3559H28.6996C29.4891 25.3603 30.1332 24.7994 30.1382 24.103C30.1382 24.103 30.1382 24.103 30.1382 24.103V13.6636C30.138 13.8633 30.0159 14.0474 29.8187 14.1454Z" fill="#1490DF"/>
<path opacity="0.1" d="M19.5615 19.2328L19.4059 19.3097C19.3608 19.3351 19.3143 19.3583 19.2664 19.3793C19.095 19.4535 18.9086 19.497 18.718 19.5073L22.6731 23.6328L29.5724 25.0993C29.7615 24.9733 29.9119 24.8077 30.0099 24.6174L19.5615 19.2328Z" fill="black"/>
<path opacity="0.05" d="M20.2661 18.8833L19.4059 19.3097C19.3608 19.3351 19.3143 19.3583 19.2664 19.3793C19.095 19.4535 18.9086 19.497 18.718 19.5073L20.571 24.0137L29.5745 25.0974C29.9292 24.8625 30.138 24.4942 30.1382 24.103V23.9682L20.2661 18.8833Z" fill="black"/>
<path d="M8.57313 25.3559H28.6975C29.0072 25.3573 29.3092 25.271 29.5591 25.1097L18.1382 19.2088C18.0902 19.1876 18.0436 19.164 17.9987 19.1381L7.46382 13.8347H7.45893L7.11499 13.6636V24.0673C7.1142 24.7783 7.76703 25.3552 8.57313 25.3559Z" fill="#28A8EA"/>
<path opacity="0.1" d="M16.8824 6.7916V19.9178C16.8812 20.378 16.5639 20.7916 16.0801 20.9639C15.9302 21.0207 15.7688 21.05 15.6057 21.0501H7.11499V6.27899H8.51034V5.66361H15.6057C16.3105 5.66596 16.8809 6.16991 16.8824 6.7916Z" fill="black"/>
<path opacity="0.2" d="M16.1848 7.40698V20.5331C16.1865 20.6818 16.1508 20.8289 16.0801 20.9639C15.8863 21.3851 15.4234 21.6615 14.908 21.6636H7.11499V6.27899H14.908C15.1104 6.2772 15.31 6.32174 15.4871 6.40823C15.9148 6.59828 16.1846 6.98459 16.1848 7.40698Z" fill="black"/>
<path opacity="0.2" d="M16.1848 7.40698V19.3024C16.1814 19.9238 15.6125 20.4274 14.908 20.4328H7.11499V6.27899H14.908C15.1104 6.2772 15.31 6.32174 15.4871 6.40823C15.9148 6.59828 16.1846 6.98459 16.1848 7.40698Z" fill="black"/>
<path opacity="0.2" d="M15.4871 7.40698V19.3024C15.4863 19.9247 14.9159 20.4298 14.2103 20.4328H7.11499V6.27899H14.2103C14.9158 6.27932 15.4875 6.78408 15.4871 7.40638C15.4871 7.40658 15.4871 7.40678 15.4871 7.40698Z" fill="black"/>
<path d="M1.41714 6.27899H14.2083C14.9146 6.27899 15.4871 6.78402 15.4871 7.40698V18.6894C15.4871 19.3124 14.9146 19.8174 14.2083 19.8174H1.41714C0.710851 19.8174 0.138306 19.3124 0.138306 18.6894V7.40698C0.138306 6.78402 0.710868 6.27899 1.41714 6.27899Z" fill="url(#paint1_linear_4_1253)"/>
<path d="M4.1353 11.0101C4.45049 10.4177 4.95924 9.92204 5.59624 9.58669C6.30167 9.23045 7.10487 9.05286 7.9174 9.07345C8.67048 9.05904 9.41358 9.22743 10.0655 9.56021C10.6785 9.88265 11.1722 10.3551 11.4867 10.9202C11.8292 11.5429 11.9999 12.2282 11.9848 12.9202C12.0014 13.6434 11.8258 14.36 11.4721 15.0125C11.1501 15.5978 10.6407 16.0871 10.0069 16.4199C9.32984 16.7629 8.55915 16.9357 7.77857 16.9196C7.0094 16.936 6.24992 16.7657 5.58298 16.4273C4.9647 16.1044 4.46481 15.6314 4.14299 15.0648C3.79847 14.4511 3.62575 13.7735 3.63927 13.0888C3.62492 12.3718 3.79449 11.6612 4.1353 11.0101ZM5.69251 14.3516C5.86056 14.7261 6.14554 15.0508 6.51437 15.2882C6.89005 15.5198 7.33989 15.6393 7.79808 15.6291C8.28604 15.6462 8.76701 15.5226 9.16832 15.2771C9.53248 15.0405 9.80997 14.7148 9.96645 14.3405C10.1414 13.9225 10.2277 13.4796 10.2211 13.0341C10.2265 12.5842 10.1454 12.1369 9.9811 11.711C9.83602 11.3265 9.56747 10.9874 9.20808 10.735C8.81684 10.4779 8.33715 10.3475 7.84971 10.3658C7.38159 10.3551 6.92167 10.4755 6.53599 10.7098C6.16092 10.9481 5.87054 11.2758 5.69879 11.6544C5.31778 12.5221 5.3158 13.4838 5.6932 14.3528L5.69251 14.3516Z" fill="white"/>
<path d="M22.4639 4.43284H28.7429V9.9713H22.4639V4.43284Z" fill="#50D9FF"/>
</g>
<defs>
<linearGradient id="paint0_linear_4_1253" x1="18.6266" y1="13.6636" x2="18.6266" y2="25.3559" gradientUnits="userSpaceOnUse">
<stop stop-color="#35B8F1"/>
<stop offset="1" stop-color="#28A8EA"/>
</linearGradient>
<linearGradient id="paint1_linear_4_1253" x1="2.80471" y1="5.3976" x2="11.0552" y2="21.598" gradientUnits="userSpaceOnUse">
<stop stop-color="#1784D9"/>
<stop offset="0.5" stop-color="#107AD5"/>
<stop offset="1" stop-color="#0A63C9"/>
</linearGradient>
<clipPath id="clip0_4_1253">
<rect width="30" height="24.6154" fill="white" transform="translate(0.138306 0.740534)"/>
</clipPath>
</defs>
</svg>
