<svg width="27" height="27" viewBox="0 0 27 27" fill="none" xmlns="http://www.w3.org/2000/svg">
<path id="qr_code_scanner" d="M0 6.6675V0H6.6675V2.667H2.667V6.6675H0ZM0 26.67V20.0025H2.667V24.003H6.6675V26.67H0ZM20.0025 26.67V24.003H24.003V20.0025H26.67V26.67H20.0025ZM24.003 6.6675V2.667H20.0025V0H26.67V6.6675H24.003ZM20.6693 20.6693H22.6695V22.6695H20.6693V20.6693ZM20.6693 16.6688H22.6695V18.669H20.6693V16.6688ZM18.669 18.669H20.6693V20.6693H18.669V18.669ZM16.6688 20.6693H18.669V22.6695H16.6688V20.6693ZM14.6685 18.669H16.6688V20.6693H14.6685V18.669ZM18.669 14.6685H20.6693V16.6688H18.669V14.6685ZM16.6688 16.6688H18.669V18.669H16.6688V16.6688ZM14.6685 14.6685H16.6688V16.6688H14.6685V14.6685ZM22.6695 4.0005V12.0015H14.6685V4.0005H22.6695ZM12.0015 14.6685V22.6695H4.0005V14.6685H12.0015ZM12.0015 4.0005V12.0015H4.0005V4.0005H12.0015ZM10.0013 20.6693V16.6688H6.00075V20.6693H10.0013ZM10.0013 10.0013V6.00075H6.00075V10.0013H10.0013ZM20.6693 10.0013V6.00075H16.6688V10.0013H20.6693Z" fill="white"/>
</svg>
